<svg width="208" height="54" viewBox="0 0 208 54" fill="none" xmlns="http://www.w3.org/2000/svg">
<rect x="1" y="1" width="206" height="52" rx="26" stroke="#00A031" stroke-width="2"/>
<path d="M50.7523 33V19.86H52.6963V33H50.7523ZM56.4834 29.328C56.6274 30.012 56.9574 30.54 57.4734 30.912C57.9894 31.272 58.6194 31.452 59.3634 31.452C60.3954 31.452 61.1694 31.08 61.6854 30.336L63.2874 31.272C62.3994 32.58 61.0854 33.234 59.3454 33.234C57.8814 33.234 56.6994 32.79 55.7994 31.902C54.8994 31.002 54.4494 29.868 54.4494 28.5C54.4494 27.156 54.8934 26.034 55.7814 25.134C56.6694 24.222 57.8094 23.766 59.2014 23.766C60.5214 23.766 61.6014 24.228 62.4414 25.152C63.2934 26.076 63.7194 27.198 63.7194 28.518C63.7194 28.722 63.6954 28.992 63.6474 29.328H56.4834ZM56.4654 27.744H61.7574C61.6254 27.012 61.3194 26.46 60.8394 26.088C60.3714 25.716 59.8194 25.53 59.1834 25.53C58.4634 25.53 57.8634 25.728 57.3834 26.124C56.9034 26.52 56.5974 27.06 56.4654 27.744ZM72.5053 24H74.4493V33H72.5053V31.704C71.7733 32.724 70.7233 33.234 69.3553 33.234C68.1193 33.234 67.0633 32.778 66.1873 31.866C65.3113 30.942 64.8733 29.82 64.8733 28.5C64.8733 27.168 65.3113 26.046 66.1873 25.134C67.0633 24.222 68.1193 23.766 69.3553 23.766C70.7233 23.766 71.7733 24.27 72.5053 25.278V24ZM67.6273 30.57C68.1673 31.11 68.8453 31.38 69.6613 31.38C70.4773 31.38 71.1553 31.11 71.6953 30.57C72.2353 30.018 72.5053 29.328 72.5053 28.5C72.5053 27.672 72.2353 26.988 71.6953 26.448C71.1553 25.896 70.4773 25.62 69.6613 25.62C68.8453 25.62 68.1673 25.896 67.6273 26.448C67.0873 26.988 66.8173 27.672 66.8173 28.5C66.8173 29.328 67.0873 30.018 67.6273 30.57ZM81.4492 23.766C82.4812 23.766 83.3152 24.096 83.9512 24.756C84.5872 25.416 84.9052 26.322 84.9052 27.474V33H82.9612V27.672C82.9612 27 82.7812 26.484 82.4212 26.124C82.0612 25.764 81.5692 25.584 80.9452 25.584C80.2612 25.584 79.7092 25.8 79.2892 26.232C78.8692 26.652 78.6592 27.3 78.6592 28.176V33H76.7152V24H78.6592V25.152C79.2472 24.228 80.1772 23.766 81.4492 23.766ZM101.326 23.766C102.346 23.766 103.168 24.096 103.792 24.756C104.416 25.416 104.728 26.304 104.728 27.42V33H102.784V27.546C102.784 26.922 102.628 26.442 102.316 26.106C102.004 25.758 101.578 25.584 101.038 25.584C100.438 25.584 99.9584 25.782 99.5984 26.178C99.2504 26.574 99.0764 27.168 99.0764 27.96V33H97.1324V27.546C97.1324 26.922 96.9824 26.442 96.6824 26.106C96.3944 25.758 95.9804 25.584 95.4404 25.584C94.8524 25.584 94.3724 25.788 94.0004 26.196C93.6284 26.592 93.4424 27.18 93.4424 27.96V33H91.4984V24H93.4424V25.08C94.0184 24.204 94.8764 23.766 96.0164 23.766C97.1684 23.766 98.0204 24.24 98.5724 25.188C99.1724 24.24 100.09 23.766 101.326 23.766ZM111.057 33.234C109.737 33.234 108.615 32.778 107.691 31.866C106.767 30.954 106.305 29.832 106.305 28.5C106.305 27.168 106.767 26.046 107.691 25.134C108.615 24.222 109.737 23.766 111.057 23.766C112.389 23.766 113.511 24.222 114.423 25.134C115.347 26.046 115.809 27.168 115.809 28.5C115.809 29.832 115.347 30.954 114.423 31.866C113.511 32.778 112.389 33.234 111.057 33.234ZM109.059 30.534C109.599 31.074 110.265 31.344 111.057 31.344C111.849 31.344 112.515 31.074 113.055 30.534C113.595 29.994 113.865 29.316 113.865 28.5C113.865 27.684 113.595 27.006 113.055 26.466C112.515 25.926 111.849 25.656 111.057 25.656C110.265 25.656 109.599 25.926 109.059 26.466C108.519 27.006 108.249 27.684 108.249 28.5C108.249 29.316 108.519 29.994 109.059 30.534ZM119.511 25.512C120.003 24.396 120.927 23.838 122.283 23.838V25.944C121.539 25.896 120.891 26.076 120.339 26.484C119.787 26.88 119.511 27.54 119.511 28.464V33H117.567V24H119.511V25.512ZM124.827 29.328C124.971 30.012 125.301 30.54 125.817 30.912C126.333 31.272 126.963 31.452 127.707 31.452C128.739 31.452 129.513 31.08 130.029 30.336L131.631 31.272C130.743 32.58 129.429 33.234 127.689 33.234C126.225 33.234 125.043 32.79 124.143 31.902C123.243 31.002 122.793 29.868 122.793 28.5C122.793 27.156 123.237 26.034 124.125 25.134C125.013 24.222 126.153 23.766 127.545 23.766C128.865 23.766 129.945 24.228 130.785 25.152C131.637 26.076 132.063 27.198 132.063 28.518C132.063 28.722 132.039 28.992 131.991 29.328H124.827ZM124.809 27.744H130.101C129.969 27.012 129.663 26.46 129.183 26.088C128.715 25.716 128.163 25.53 127.527 25.53C126.807 25.53 126.207 25.728 125.727 26.124C125.247 26.52 124.941 27.06 124.809 27.744Z" fill="#00A031"/>
<path d="M168 31L170 29.0357L168.036 27" stroke="#00A031" stroke-width="2" stroke-linecap="round" stroke-linejoin="round"/>
<path d="M169 29H159" stroke="#00A031" stroke-width="2" stroke-linecap="round" stroke-linejoin="round"/>
<path d="M152 29H155" stroke="#00A031" stroke-width="2" stroke-linecap="round" stroke-linejoin="round"/>
<path d="M147 29H148" stroke="#00A031" stroke-width="2" stroke-linecap="round" stroke-linejoin="round"/>
</svg>
